<mxfile host="app.diagrams.net" modified="2023-09-22T11:50:50.678Z" agent="Mozilla/5.0 (X11; Linux x86_64) AppleWebKit/537.36 (KHTML, like Gecko) Chrome/116.0.0.0 Safari/537.36" version="21.8.0" etag="v_ky7VNCBeNa7NLujhoD" type="github">
  <diagram name="Page-1" id="WuMvByEOkczq469cRa4I">
    <mxGraphModel>
      <root>
        <mxCell id="0" />
        <mxCell id="1" parent="0" />
      </root>
    </mxGraphModel>
  </diagram>
</mxfile>
